<svg width="234" height="35" viewBox="0 0 234 35" fill="none" xmlns="http://www.w3.org/2000/svg">
<path d="M81.8147 17.1484V21.9297H67.4622C65.7171 21.9297 64.6536 22.8718 64.6536 25.1387V26.6855C64.6537 29.1922 65.7859 30.0068 67.4836 30.0068H81.8147V34.7578L66.3157 34.7617C59.2445 34.7617 56.5012 32.4875 56.5012 26.959V25.0107C56.5014 20.1656 59.1252 17.1484 66.0764 17.1484H81.8147ZM122.047 17.1523C127.99 17.1524 130.616 19.5465 130.616 23.9678V28.0547C130.616 33.2829 127.848 34.7617 121.463 34.7617H112.4C106.504 34.7617 103.54 33.6806 103.54 29.7998V29.1318C103.54 26.3434 105.082 24.1514 110.208 24.1514H122.519V23.457C122.519 22.3013 121.989 21.7725 120.465 21.7725H105.173V17.1445L122.047 17.1523ZM54.1907 14.3369V34.7578H45.9114V22.5908L31.9133 34.7578H25.1252V22.6689L10.6965 34.7578H0.900635L22.637 16.9082C24.4292 15.422 26.1165 14.3408 28.8557 14.3408H33.4045V25.7695L43.8245 16.8438C45.5442 15.3612 47.2462 14.3369 49.677 14.3369H54.1907ZM92.384 14.3369V29.9766H101.937V34.7578H84.2532V14.3369H92.384ZM148.816 17.1445V21.9258H142.477C141.483 21.9258 141.182 22.4101 141.182 23.1904V34.7578H133.047V22.1621C133.047 19.0284 134.873 17.1445 139.716 17.1445H148.816ZM195.52 17.1445C202.99 17.1445 205.624 19.2916 205.624 24.2383V34.7578H197.49V24.9023C197.49 22.6429 196.358 21.9297 194.094 21.9297H187.429V34.7578H179.295V17.1445H195.52ZM168.48 17.1445C175.682 17.1445 177.111 19.2764 177.111 22.2715V23.0742C177.111 26.3808 174.731 27.7549 170.479 27.7549H158.147V28.4717C158.147 29.665 158.669 30.1269 160.193 30.127H175.852V34.7549H158.586C152.672 34.7549 150.016 32.39 150.016 27.9688V24.4785C150.016 19.4004 152.654 17.1406 159.199 17.1406L168.48 17.1445ZM112.784 27.3457C111.551 27.3457 111.152 27.8264 111.152 28.8135C111.152 29.8003 111.732 30.1308 112.784 30.1309H120.857C122.108 30.1309 122.519 29.4435 122.519 28.4639V27.3457H112.784ZM159.805 21.7686C158.524 21.7686 158.115 22.4255 158.115 23.4238V24.5342L167.939 24.5303C169.092 24.5303 169.543 24.1103 169.543 23.1758C169.543 22.1212 168.999 21.7686 167.881 21.7686H159.805ZM226.373 0C236.652 0 237.33 7.23592 212.776 23.8662C221.102 12.8734 215.46 9.73535 207.543 9.73535C201.68 9.73543 194.569 11.4587 190.963 12.9824C197.127 8.95901 202.823 6.18564 208.581 4.00879C215.482 1.39663 221.856 7.47195e-05 226.373 0Z" fill="white"/>
</svg>
